<svg version="1.1" xmlns="http://www.w3.org/2000/svg" viewBox="0 0 250 250"><desc>Created with Snap</desc><defs></defs><g transform="matrix(0.0481,0,0,0.0481,13.3946,169.2281)"><rect x="-278.2" y="-3168.1600128173823" width="5192.4" height="4499.120025634765" fill="#91f5ad" style=""></rect><g transform="matrix(34.0509,0,0,34.0509,606.927,-3681.8923)"><path d="M54.042,24.109l37.912,21.888v8.756  L54.042,76.641v-8.755l30.331-17.511l-30.331-17.51V24.109z" fill="#292929" style=""></path><path d="M54.042,41.62l15.166,8.755l-15.166,8.755  V41.62z" fill="#292929" style=""></path><polygon points="46.459,24.109 8.547,45.997 8.547,54.752 38.876,37.243 38.876,72.263 46.459,76.641 " fill="#292929" style=""></polygon><polygon points="31.294,50.375 16.129,59.13 31.294,67.885 " fill="#292929" style=""></polygon><desc>Created with Snap</desc><defs></defs></g><g><g transform="matrix(0.5,0,0,-0.5,0,0)"><path d="M407 0L120 0Q166 158 166 543Q166 817 118 917Q106 942 91 964L58 1010L405 1010Q390 960 385 916L377 844Q498 1030 685 1030Q806 1030 874 936Q940 844 940 687L940 580Q940 305 945 244Q950 183 953 151Q956 119 960 94Q967 47 981 0L688 0Q734 158 734 543Q734 697 714 754Q695 811 668 835Q641 860 597 860Q516 860 450 796Q393 741 363 656Q361 629 361 600L361 543Q361 158 407 0ZM1934 340Q1970 316 1970 256Q1970 197 1954 152Q1938 107 1898 68Q1808 -20 1624 -20Q1410 -20 1298 138Q1199 279 1199 519Q1199 761 1333 899Q1460 1030 1677 1030Q1828 1030 1913 942Q1980 872 1980 780Q1980 689 1944 615Q1909 542 1840 489Q1698 379 1443 373Q1464 172 1569 104Q1607 80 1670 80Q1733 80 1804 146Q1875 212 1934 340ZM1437 499L1437 468Q1753 489 1753 774Q1753 881 1689 918Q1667 930 1631 930Q1595 930 1558 908Q1522 886 1495 836Q1437 727 1437 499ZM2679 1010L3008 1010Q2966 941 2966 803Q2966 770 2986 699Q3034 538 3055 474L3130 256Q3177 395 3198 464Q3297 794 3297 835Q3297 876 3293 897Q3289 919 3282 938Q3270 965 3235 1010L3570 1010Q3508 943 3484 883Q3460 824 3448 793L3324 445Q3278 305 3258 237Q3246 183 3246 122Q3246 61 3272 -1L2902 0Q2926 38 2930 71Q2935 105 2935 137Q2935 169 2925 216Q2915 263 2898 324Q2864 451 2812 595Q2715 347 2695 266Q2675 186 2675 124Q2675 63 2702 -1L2332 0Q2356 38 2360 71Q2365 105 2365 140Q2365 176 2350 243Q2336 310 2312 395Q2288 480 2257 574Q2226 669 2192 755Q2115 950 2062 1010L2431 1010Q2413 966 2413 913Q2413 860 2420 820Q2428 781 2440 729Q2453 677 2470 617L2570 266Q2713 628 2729 697Q2745 767 2745 787Q2745 916 2679 1010ZM4300 1069Q4327 1009 4327 948Q4327 887 4321 847Q4316 807 4305 770Q4280 686 4234 641Q4203 796 4166 842Q4130 888 4093 904Q4057 920 4016 920Q3975 920 3949 912Q3923 904 3904 889Q3861 856 3861 814Q3861 772 3882 741Q3903 711 3937 684Q3972 658 4016 633L4106 582Q4222 517 4265 474Q4350 389 4350 295Q4350 172 4266 88Q4160 -20 3948 -20Q3755 -20 3658 70Q3630 96 3618 122Q3626 197 3685 263Q3742 327 3796 337Q3792 324 3792 298Q3792 272 3807 233Q3822 195 3850 162Q3913 86 3992 86Q4071 86 4108 122Q4145 158 4145 204Q4145 250 4124 281Q4103 312 4068 339Q4034 366 3990 391L3900 442Q3785 510 3742 558Q3656 654 3656 767Q3656 886 3756 960Q3851 1030 3993 1030L4169 1018Q4233 1018 4258 1033Q4283 1049 4300 1069ZM4852 720L4851 458Q4851 134 4890 0L4595 0Q4623 97 4630 229Q4645 548 4645 724Q4645 900 4644 960Q4643 1021 4642 1082Q4636 1299 4621 1355Q4607 1412 4594 1437Q4582 1463 4566 1484L4533 1530L4898 1530Q4870 1429 4865 1336Q4861 1244 4858 1173Q4856 1102 4854 1025Q4852 897 4852 720ZM5836 340Q5872 316 5872 256Q5872 197 5856 152Q5840 107 5800 68Q5710 -20 5526 -20Q5312 -20 5200 138Q5101 279 5101 519Q5101 761 5235 899Q5362 1030 5579 1030Q5730 1030 5815 942Q5882 872 5882 780Q5882 689 5846 615Q5811 542 5742 489Q5600 379 5345 373Q5366 172 5471 104Q5509 80 5572 80Q5635 80 5706 146Q5777 212 5836 340ZM5339 499L5339 468Q5655 489 5655 774Q5655 881 5591 918Q5569 930 5533 930Q5497 930 5460 908Q5424 886 5397 836Q5339 727 5339 499ZM6386 1410Q6365 1333 6365 1225Q6365 1118 6369 1088Q6374 1058 6384 1040Q6403 1010 6458 1010L6726 1010Q6726 954 6699 924Q6650 870 6579 870Q6544 870 6517 880Q6468 900 6441 900Q6414 900 6397 889Q6380 879 6370 859Q6352 823 6352 702Q6352 581 6359 454Q6367 327 6397 241Q6427 156 6488 113Q6549 70 6656 70Q6656 39 6614 -4Q6603 -16 6595 -20Q6418 -20 6330 22Q6229 72 6186 200Q6143 330 6143 585Q6143 808 6131 848Q6119 889 6109 902Q6097 917 6051 939Q6113 986 6174 1114L6224 1219Q6277 1339 6314 1374Q6352 1410 6386 1410ZM7125 1410Q7104 1333 7104 1225Q7104 1118 7108 1088Q7113 1058 7123 1040Q7142 1010 7197 1010L7465 1010Q7465 954 7438 924Q7389 870 7318 870Q7283 870 7256 880Q7207 900 7180 900Q7153 900 7136 889Q7119 879 7109 859Q7091 823 7091 702Q7091 581 7098 454Q7106 327 7136 241Q7166 156 7227 113Q7288 70 7395 70Q7395 39 7353 -4Q7342 -16 7334 -20Q7157 -20 7069 22Q6968 72 6925 200Q6882 330 6882 585Q6882 808 6870 848Q6858 889 6848 902Q6836 917 6790 939Q6852 986 6913 1114L6963 1219Q7016 1339 7053 1374Q7091 1410 7125 1410ZM8270 340Q8306 316 8306 256Q8306 197 8290 152Q8274 107 8234 68Q8144 -20 7960 -20Q7746 -20 7634 138Q7535 279 7535 519Q7535 761 7669 899Q7796 1030 8013 1030Q8164 1030 8249 942Q8316 872 8316 780Q8316 689 8280 615Q8245 542 8176 489Q8034 379 7779 373Q7800 172 7905 104Q7943 80 8006 80Q8069 80 8140 146Q8211 212 8270 340ZM7773 499L7773 468Q8089 489 8089 774Q8089 881 8025 918Q8003 930 7967 930Q7931 930 7894 908Q7858 886 7831 836Q7773 727 7773 499ZM8845 0L8550 0Q8596 158 8596 543Q8596 817 8552 917Q8534 958 8488 1010L8843 1010Q8825 947 8814 837Q8908 955 9076 1004Q9148 1025 9181 1070Q9214 991 9214 934Q9214 877 9208 828Q9202 780 9190 734Q9164 635 9121 580Q9084 775 9006 808Q8916 847 8830 702Q8812 672 8800 638Q8799 615 8799 591Q8799 567 8799 543Q8799 158 8845 0Z" fill="#292929" style=""></path></g></g><g transform="matrix(0.75,0,0,0.75,745.9039,860.944)"><g transform="matrix(1.024,0,0,-1.024,0,0)"><path d="M94 403L69 463Q107 486 157 497Q208 508 263 508Q315 508 346 494Q378 480 394 457Q411 435 416 408Q422 381 422 354Q422 294 419 237Q416 180 416 129Q416 92 419 59Q422 26 430 -2L371 -2L350 68L345 68Q336 54 322 40Q309 27 290 16Q271 6 246 -1Q221 -8 189 -8Q157 -8 129 2Q102 12 82 30Q62 49 50 75Q39 101 39 134Q39 178 57 207Q75 237 107 254Q140 272 185 279Q231 287 286 287Q300 287 313 287Q327 287 341 285Q344 315 344 339Q344 394 322 416Q300 438 242 438Q225 438 205 435Q186 433 165 428Q145 424 126 417Q108 411 94 403ZM211 62Q239 62 261 69Q283 77 299 88Q315 100 325 114Q336 128 341 141L341 224Q327 225 312 225Q298 226 284 226Q253 226 223 222Q194 219 171 209Q149 200 135 183Q122 167 122 142Q122 107 147 84Q172 62 211 62ZM957 700L957 172Q957 121 958 79Q959 38 967 -2L913 -2L893 69L889 69Q869 34 831 11Q793 -12 742 -12Q642 -12 593 51Q545 114 545 248Q545 376 605 442Q666 509 772 509Q809 509 830 505Q852 501 877 492L877 700L957 700ZM755 58Q806 58 836 84Q866 111 877 165L877 413Q859 427 836 433Q813 439 775 439Q706 439 667 393Q628 348 628 248Q628 207 634 172Q641 137 656 112Q671 87 695 72Q720 58 755 58ZM1138 500L1258 176L1286 80L1291 80L1313 177L1410 500L1491 500L1343 51Q1326 2 1309 -44Q1293 -90 1273 -126Q1253 -162 1228 -184Q1203 -205 1170 -205Q1134 -205 1111 -195L1125 -126Q1138 -131 1150 -131Q1178 -131 1204 -102Q1230 -72 1247 0L1046 500L1138 500ZM1594 403L1569 463Q1607 486 1657 497Q1708 508 1763 508Q1815 508 1846 494Q1878 480 1894 457Q1911 435 1916 408Q1922 381 1922 354Q1922 294 1919 237Q1916 180 1916 129Q1916 92 1919 59Q1922 26 1930 -2L1871 -2L1850 68L1845 68Q1836 54 1822 40Q1809 27 1790 16Q1771 6 1746 -1Q1721 -8 1689 -8Q1657 -8 1629 2Q1602 12 1582 30Q1562 49 1550 75Q1539 101 1539 134Q1539 178 1557 207Q1575 237 1607 254Q1640 272 1685 279Q1731 287 1786 287Q1800 287 1813 287Q1827 287 1841 285Q1844 315 1844 339Q1844 394 1822 416Q1800 438 1742 438Q1725 438 1705 435Q1686 433 1665 428Q1645 424 1626 417Q1608 411 1594 403ZM1711 62Q1739 62 1761 69Q1783 77 1799 88Q1815 100 1825 114Q1836 128 1841 141L1841 224Q1827 225 1812 225Q1798 226 1784 226Q1753 226 1723 222Q1694 219 1671 209Q1649 200 1635 183Q1622 167 1622 142Q1622 107 1647 84Q1672 62 1711 62ZM2162 700L2162 123Q2162 88 2174 73Q2186 58 2208 58Q2221 58 2236 60Q2251 62 2270 69L2279 6Q2263 -2 2234 -7Q2206 -12 2185 -12Q2140 -12 2111 13Q2082 39 2082 100L2082 700L2162 700ZM2648 3L2648 500L2728 500L2728 -27Q2728 -120 2696 -166Q2664 -212 2594 -212Q2586 -212 2579 -212Q2572 -211 2564 -210L2564 -142Q2592 -142 2608 -134Q2625 -125 2634 -107Q2643 -89 2645 -62Q2648 -34 2648 3ZM2631 652Q2631 675 2646 691Q2662 708 2686 708Q2710 708 2727 691Q2744 675 2744 652Q2744 629 2727 614Q2710 599 2686 599Q2662 599 2646 614Q2631 629 2631 652ZM2916 403L2891 463Q2929 486 2979 497Q3030 508 3085 508Q3137 508 3168 494Q3200 480 3216 457Q3233 435 3238 408Q3244 381 3244 354Q3244 294 3241 237Q3238 180 3238 129Q3238 92 3241 59Q3244 26 3252 -2L3193 -2L3172 68L3167 68Q3158 54 3144 40Q3131 27 3112 16Q3093 6 3068 -1Q3043 -8 3011 -8Q2979 -8 2951 2Q2924 12 2904 30Q2884 49 2872 75Q2861 101 2861 134Q2861 178 2879 207Q2897 237 2929 254Q2962 272 3007 279Q3053 287 3108 287Q3122 287 3135 287Q3149 287 3163 285Q3166 315 3166 339Q3166 394 3144 416Q3122 438 3064 438Q3047 438 3027 435Q3008 433 2987 428Q2967 424 2948 417Q2930 411 2916 403ZM3033 62Q3061 62 3083 69Q3105 77 3121 88Q3137 100 3147 114Q3158 128 3163 141L3163 224Q3149 225 3134 225Q3120 226 3106 226Q3075 226 3045 222Q3016 219 2993 209Q2971 200 2957 183Q2944 167 2944 142Q2944 107 2969 84Q2994 62 3033 62ZM3796 0L3716 0L3716 285Q3716 363 3693 402Q3671 442 3611 442Q3558 442 3523 413Q3489 385 3475 342L3475 0L3395 0L3395 500L3451 500L3466 439L3470 439Q3494 471 3534 491Q3575 512 3631 512Q3672 512 3703 502Q3734 493 3754 469Q3775 445 3785 404Q3796 364 3796 302L3796 0ZM3959 0L3959 500L4039 500L4039 0L3959 0ZM3942 652Q3942 675 3957 691Q3973 708 3997 708Q4021 708 4038 691Q4055 675 4055 652Q4055 629 4038 614Q4021 599 3997 599Q3973 599 3957 614Q3942 629 3942 652Z" fill="#292929" style=""></path></g></g></g></svg>